HIERARCHY
ROOT Hips
{
	OFFSET -0.001795 -0.223333 0.028219
	CHANNELS 6 Xposition Yposition Zposition Zrotation Yrotation Xrotation 
	JOINT LeftUpLeg
	{
		OFFSET 0.069520 -0.091406 -0.006815
		CHANNELS 3 Zrotation Yrotation Xrotation
		JOINT LeftLeg
		{
			OFFSET 0.034277 -0.375199 -0.004496
			CHANNELS 3 Zrotation Yrotation Xrotation
			JOINT LeftFoot
			{
				OFFSET -0.013596 -0.397961 -0.043693
				CHANNELS 3 Zrotation Yrotation Xrotation
				JOINT LeftToe
				{
					OFFSET 0.026358 -0.055791 0.119288
					CHANNELS 3 Zrotation Yrotation Xrotation
					End Site
					{
						OFFSET 0.000000 0.000000 0.000000
					}
				}
			}
		}
	}
	JOINT RightUpLeg
	{
		OFFSET -0.067670 -0.090522 -0.004320
		CHANNELS 3 Zrotation Yrotation Xrotation
		JOINT RightLeg
		{
			OFFSET -0.038290 -0.382569 -0.008850
			CHANNELS 3 Zrotation Yrotation Xrotation
			JOINT RightFoot
			{
				OFFSET 0.015774 -0.398415 -0.042312
				CHANNELS 3 Zrotation Yrotation Xrotation
				JOINT RightToe
				{
					OFFSET -0.025372 -0.048144 0.123348
					CHANNELS 3 Zrotation Yrotation Xrotation
					End Site
					{
						OFFSET 0.000000 0.000000 0.000000
					}
				}
			}
		}
	}
	JOINT Spine
	{
		OFFSET -0.002533 0.108963 -0.026696
		CHANNELS 3 Zrotation Yrotation Xrotation
		JOINT Spine1
		{
			OFFSET 0.005487 0.135180 0.001092
			CHANNELS 3 Zrotation Yrotation Xrotation
			JOINT Spine2
			{
				OFFSET 0.001457 0.052922 0.025425
				CHANNELS 3 Zrotation Yrotation Xrotation
				JOINT Neck
				{
					OFFSET -0.002778 0.213870 -0.042857
					CHANNELS 3 Zrotation Yrotation Xrotation
					JOINT Head
					{
						OFFSET 0.005152 0.064970 0.051349
						CHANNELS 3 Zrotation Yrotation Xrotation
						End Site
						{
							OFFSET 0.000000 0.000000 0.000000
						}
					}
				}
				JOINT LeftShoulder
				{
					OFFSET 0.078845 0.121749 -0.034090
					CHANNELS 3 Zrotation Yrotation Xrotation
					JOINT LeftArm
					{
						OFFSET 0.090977 0.030469 -0.008868
						CHANNELS 3 Zrotation Yrotation Xrotation
						JOINT LeftForeArm
						{
							OFFSET 0.259612 -0.012772 -0.027456
							CHANNELS 3 Zrotation Yrotation Xrotation
							JOINT LeftHand
							{
								OFFSET 0.249234 0.008986 -0.001171
								CHANNELS 3 Zrotation Yrotation Xrotation
								End Site
								{
									OFFSET 0.000000 0.000000 0.000000
								}
							}
						}
					}
				}
				JOINT RightShoulder
				{
					OFFSET -0.081759 0.118833 -0.038615
					CHANNELS 3 Zrotation Yrotation Xrotation
					JOINT RightArm
					{
						OFFSET -0.096012 0.032551 -0.009143
						CHANNELS 3 Zrotation Yrotation Xrotation
						JOINT RightForeArm
						{
							OFFSET -0.253742 -0.013329 -0.021401
							CHANNELS 3 Zrotation Yrotation Xrotation
							JOINT RightHand
							{
								OFFSET -0.255298 0.007772 -0.005559
								CHANNELS 3 Zrotation Yrotation Xrotation
								End Site
								{
									OFFSET 0.000000 0.000000 0.000000
								}
							}
						}
					}
				}
			}
		}
	}
}
MOTION
Frames: 9
Frame Time: 0.050000
0.000000 0.951011 0.000000 -1.148414 1.659842 2.548576 4.915192 0.041964 3.263106 -4.979237 0.454542 -6.325170 7.296842 16.384328 12.493939 0.000000 0.000000 0.000000 -2.435237 0.008594 0.680816 3.718683 -0.409146 -0.485009 -6.271011 -16.512658 12.071570 0.000000 0.000000 0.000000 -0.257456 -0.151483 3.958919 3.428446 -0.122000 -25.281728 -1.254556 0.186016 29.496635 1.739064 1.189413 -32.200395 0.000000 0.000000 0.000000 -27.983535 0.560714 -2.566127 -49.742309 -5.739421 -5.953461 -9.266307 -23.672314 3.120391 0.000000 0.000000 0.000000 19.665066 3.353017 1.218448 55.662130 6.244999 -5.310884 5.596224 24.550893 2.306571 0.000000 0.000000 0.000000 
-0.000076 0.950691 0.001197 -1.399269 1.089345 2.911311 5.256570 0.025572 3.199207 -4.625054 0.440699 -6.826269 7.749169 17.060364 12.847385 0.000000 0.000000 0.000000 -2.235290 0.066730 -0.048620 3.566507 -0.383486 0.092088 -6.123063 -16.283807 11.959974 0.000000 0.000000 0.000000 0.131679 -0.146619 3.371717 3.484447 -0.147037 -25.236858 -1.491759 0.526635 29.513169 1.711841 1.209882 -32.256046 0.000000 0.000000 0.000000 -28.410648 1.784204 -3.421143 -49.361246 -5.538116 -5.982108 -10.167107 -24.276511 3.410160 0.000000 0.000000 0.000000 18.750695 3.050719 1.056983 57.349655 5.026767 -5.970117 4.893152 26.447064 2.402756 0.000000 0.000000 0.000000 
-0.000106 0.950536 0.002171 -1.091012 1.052788 3.006989 4.975863 0.027968 2.943301 -4.974127 0.464679 -6.107957 7.814142 17.168994 13.055591 0.000000 0.000000 0.000000 -2.584742 0.070603 0.031901 3.342341 -0.360698 -0.128384 -5.896470 -15.895756 12.247912 0.000000 0.000000 0.000000 0.462041 -0.151906 3.154704 2.466526 0.082406 -25.146857 -1.299743 -0.312530 29.547114 1.253179 1.295621 -32.340469 0.000000 0.000000 0.000000 -28.081928 1.384104 -2.771383 -49.461818 -5.540851 -6.090366 -9.678621 -24.336426 3.350057 0.000000 0.000000 0.000000 19.445605 3.363306 0.973638 56.671154 4.437114 -6.163942 4.910549 26.658008 2.372886 0.000000 0.000000 0.000000 
-0.000182 0.950545 0.003225 -1.003870 1.082297 2.807668 4.875417 0.048680 3.241098 -4.689647 0.451043 -5.966592 7.907141 17.327006 13.311035 0.000000 0.000000 0.000000 -2.740758 0.056701 0.248044 3.663669 -0.393940 0.111546 -6.432285 -16.903042 12.974438 0.000000 0.000000 0.000000 0.263967 -0.149803 3.319689 2.958533 -0.003612 -25.718159 -1.610966 -0.527184 29.762925 1.560703 1.130521 -32.741890 0.000000 0.000000 0.000000 -28.906531 2.176041 -3.322283 -48.705071 -5.039563 -6.225228 -10.468260 -24.618642 3.574463 0.000000 0.000000 0.000000 19.277468 3.245131 0.866019 56.466752 4.097501 -6.318692 5.605601 27.101576 2.569100 0.000000 0.000000 0.000000 
-0.000320 0.951007 0.004070 -0.912931 1.275023 2.615291 4.863233 0.053436 3.339311 -4.555932 0.443513 -5.768428 7.260922 16.384395 13.357606 0.000000 0.000000 0.000000 -2.882900 0.034400 0.563769 3.499825 -0.378947 -0.029576 -6.265595 -16.591143 13.019371 0.000000 0.000000 0.000000 0.184855 -0.155498 3.541594 3.309008 -0.103540 -25.256550 -1.915915 -0.642271 29.035692 1.405381 1.169231 -31.965277 0.000000 0.000000 0.000000 -28.694273 2.274919 -3.403264 -48.802040 -4.581133 -6.332061 -11.219037 -25.138135 3.816720 0.000000 0.000000 0.000000 19.345711 2.761160 0.568426 56.261873 3.755929 -6.369495 6.338307 27.178308 2.730514 0.000000 0.000000 0.000000 
-0.000385 0.951576 0.004630 -0.850996 1.372072 2.594403 4.813584 0.055476 3.352379 -4.372737 0.432826 -5.700603 7.017576 16.009393 13.158808 0.000000 0.000000 0.000000 -3.030807 0.021166 0.791282 3.508346 -0.380724 -0.034355 -6.246484 -16.552870 13.092457 0.000000 0.000000 0.000000 0.004212 -0.143350 3.458779 3.430806 -0.115047 -25.546347 -1.919385 -0.969821 29.208605 1.569208 1.045090 -32.086882 0.000000 0.000000 0.000000 -28.641512 2.475012 -3.419673 -48.830513 -4.177843 -6.534609 -11.617480 -25.736409 4.027724 0.000000 0.000000 0.000000 19.072196 2.772450 0.520825 56.353087 3.581824 -6.469389 6.211219 27.375312 2.714832 0.000000 0.000000 0.000000 
-0.000490 0.951835 0.004841 -0.860334 1.416212 2.535078 4.854928 0.056950 3.430508 -4.383046 0.432473 -5.781307 7.046608 16.102049 13.651051 0.000000 0.000000 0.000000 -2.931094 0.011318 0.868463 3.394695 -0.368319 0.019579 -6.167400 -16.401801 12.983304 0.000000 0.000000 0.000000 0.020602 -0.147837 3.546922 3.539979 -0.142578 -25.486440 -2.008375 -1.159500 29.030460 1.719393 0.929757 -31.914516 0.000000 0.000000 0.000000 -28.799146 2.625890 -3.486541 -48.682180 -3.807118 -6.658715 -12.087819 -26.222977 4.228622 0.000000 0.000000 0.000000 19.189342 2.736323 0.446863 56.295485 3.466192 -6.496272 6.241661 27.792779 2.761713 0.000000 0.000000 0.000000 
-0.000567 0.951956 0.004892 -0.873814 1.431974 2.593642 4.844784 0.047594 3.238794 -4.335065 0.430187 -5.662873 7.149944 16.238459 13.452113 0.000000 0.000000 0.000000 -2.836779 0.021744 0.696575 3.472904 -0.373972 0.370940 -6.215688 -16.463496 12.608360 0.000000 0.000000 0.000000 0.069924 -0.150378 3.550048 3.504791 -0.132696 -25.514319 -1.967760 -1.217945 28.869290 1.858508 0.831089 -31.624595 0.000000 0.000000 0.000000 -28.782573 2.527599 -3.407130 -48.500592 -3.518840 -6.737504 -12.478401 -26.783676 4.420504 0.000000 0.000000 0.000000 19.126297 2.598129 0.355920 56.367796 3.430080 -6.500888 6.316263 27.932566 2.792849 0.000000 0.000000 0.000000 
-0.000626 0.952041 0.004937 -0.855438 1.396096 2.574621 4.821691 0.050557 3.260355 -4.315160 0.429979 -5.577696 7.221276 16.337166 13.395777 0.000000 0.000000 0.000000 -2.796467 0.023722 0.655164 3.473631 -0.372674 0.503981 -6.283084 -16.590268 12.650900 0.000000 0.000000 0.000000 0.037349 -0.152414 3.636277 3.581914 -0.140457 -25.705521 -1.893041 -1.094974 28.859246 1.838691 0.851893 -31.542177 0.000000 0.000000 0.000000 -28.872570 2.610182 -3.514237 -48.439682 -3.546721 -6.707750 -12.786554 -26.852368 4.502856 0.000000 0.000000 0.000000 19.307318 2.516736 0.330315 56.166142 3.542139 -6.437771 6.188719 28.043353 2.782558 0.000000 0.000000 0.000000 
